:SAMPLES-PER-SECOND 30
:FULLY-SPECIFIED
:DEGREES
240
root  -6.07444 38.7044 13.895 177.925 -30.7174 173.684
RightUpLeg  1.11935 3.3761 -19.6405
RightLeg  27.9235 -17.5594 -10.0469
RightFoot  -6.6551 -0.693146 15.7352
RightToes  -5.8209e-011 0 -3.6325e-017
Spine  17.9687 -1.32689 31.0799
Spine1  18.4919 4.83064 -3.56029
HEad  17.5356 -46.8687 -1.27387
LeftShoulder1  7.62885 -16.8098 -31.5081
LeftArm  -3.95343 -37.8795 -74.6017
LeftForeArm  -9.77619 6.51199 -5.07257
LeftHand  -0.246645 0.021 5.37786
RightShoulder  8.71207 17.5159 35.4238
RightArm  2.96808 56.1088 59.2386
RightForeArm  38.5312 -7.58476 11.8018
RightHand  -0.24729 -0.0210522 -5.37781
LeftUpLeg  -11.0798 2.90316 -8.08075
LeftLeg  26.5301 -19.9911 -10.2118
LeftFoot  -5.15373 -0.178095 3.86864
LeftToes  -7.45818e-011 -3.37383e-011 1.08613e-011
241
root  -6.16229 38.7195 13.8728 178.171 -32.1785 173.582
RightUpLeg  1.61901 2.89842 -19.6847
RightLeg  28.0687 -18.1449 -10.4151
RightFoot  -6.36427 -0.719697 15.4695
RightToes  -5.8209e-011 0 -3.6325e-017
Spine  17.1288 -0.776187 32.7076
Spine1  17.9794 5.51107 -3.73811
HEad  17.4204 -48.4876 -1.46643
LeftShoulder1  7.74294 -16.8106 -32.0713
LeftArm  -3.55371 -37.5317 -74.4603
LeftForeArm  -13.8696 6.51889 -5.60412
LeftHand  -0.246645 0.021 5.37786
RightShoulder  8.57107 17.477 34.8382
RightArm  4.44637 57.1969 60.7447
RightForeArm  42.4504 -7.54122 12.054
RightHand  -0.24729 -0.0210522 -5.37781
LeftUpLeg  -10.9913 2.65412 -8.32248
LeftLeg  26.431 -21.0212 -10.6775
LeftFoot  -4.77851 -0.199401 3.97982
LeftToes  -7.45818e-011 -3.37383e-011 1.08613e-011
242
root  -6.24989 38.7301 13.8472 178.426 -33.683 173.422
RightUpLeg  2.16692 2.38902 -19.7922
RightLeg  28.1992 -18.6427 -10.7326
RightFoot  -6.08775 -0.750811 15.3702
RightToes  -5.8209e-011 0 -3.6325e-017
Spine  16.1104 -0.215926 34.2228
Spine1  17.7286 6.11566 -3.95331
HEad  17.1221 -49.6633 -1.43809
LeftShoulder1  7.83926 -16.7965 -32.5736
LeftArm  -3.18141 -37.2569 -74.0579
LeftForeArm  -17.5697 6.52165 -6.09901
LeftHand  -0.246645 0.021 5.37786
RightShoulder  8.41943 17.4604 34.1549
RightArm  6.0882 58.2421 62.6212
RightForeArm  45.8401 -7.49946 12.3059
RightHand  -0.24729 -0.0210522 -5.37781
LeftUpLeg  -10.8505 2.23089 -8.61389
LeftLeg  26.3005 -21.9827 -11.0867
LeftFoot  -4.40881 -0.212464 3.94602
LeftToes  -7.45818e-011 -3.37383e-011 1.08613e-011
243
root  -6.33023 38.7384 13.8079 178.705 -35.2654 173.216
RightUpLeg  2.76494 1.87822 -19.904
RightLeg  28.3446 -19.1209 -11.0475
RightFoot  -5.80097 -0.788627 15.391
RightToes  -5.8209e-011 0 -3.6325e-017
Spine  14.9376 0.392152 35.6508
Spine1  17.6916 6.69125 -4.21967
HEad  16.6507 -50.4312 -1.05327
LeftShoulder1  7.89504 -16.7387 -32.9598
LeftArm  -3.09554 -37.1426 -73.6478
LeftForeArm  -20.2482 6.16035 -6.38687
LeftHand  -0.246645 0.021 5.37786
RightShoulder  8.26807 17.4568 33.4441
RightArm  8.36924 59.1892 64.6368
RightForeArm  48.725 -7.45409 12.7611
RightHand  -0.24729 -0.0210522 -5.37781
LeftUpLeg  -10.689 1.63752 -8.92347
LeftLeg  26.1857 -22.8774 -11.4625
LeftFoot  -4.08366 -0.221171 3.87455
LeftToes  -7.45818e-011 -3.37383e-011 1.08613e-011
244
root  -6.40258 38.747 13.7493 178.889 -36.9735 173.031
RightUpLeg  3.46634 1.43308 -19.9047
RightLeg  28.6484 -19.6255 -11.4474
RightFoot  -5.46645 -0.82608 15.2857
RightToes  -5.8209e-011 0 -3.6325e-017
Spine  13.8117 1.03252 37.0687
Spine1  17.5857 7.29205 -4.53422
HEad  16.2426 -50.7305 -0.619071
LeftShoulder1  7.9209 -16.6638 -33.2329
LeftArm  -3.22594 -37.1011 -73.3977
LeftForeArm  -21.6912 4.87023 -6.59599
LeftHand  -0.246645 0.021 5.37786
RightShoulder  8.13695 17.4439 32.8437
RightArm  11.4261 59.9489 66.5069
RightForeArm  50.6458 -7.29158 13.3712
RightHand  -0.24729 -0.0210522 -5.37781
LeftUpLeg  -10.4334 1.14259 -9.15982
LeftLeg  26.1951 -23.9185 -11.9608
LeftFoot  -3.79453 -0.236205 3.92681
LeftToes  -7.45818e-011 -3.37383e-011 1.08613e-011
245
root  -6.47341 38.7571 13.6816 179.023 -38.7927 172.825
RightUpLeg  4.14448 1.05425 -19.8462
RightLeg  29.251 -20.1132 -11.9784
RightFoot  -5.04351 -0.858605 14.9027
RightToes  -5.8209e-011 0 -3.6325e-017
Spine  12.8276 1.72201 38.3897
Spine1  17.1861 7.92583 -4.8186
HEad  16.0877 -50.486 -0.543277
LeftShoulder1  7.93796 -16.6113 -33.4202
LeftArm  -3.26039 -36.9392 -73.2208
LeftForeArm  -22.7305 3.74227 -6.80541
LeftHand  -0.246645 0.021 5.37786
RightShoulder  8.01998 17.4074 32.3518
RightArm  14.8988 60.4997 68.213
RightForeArm  51.4264 -6.99398 13.9957
RightHand  -0.24729 -0.0210522 -5.37781
LeftUpLeg  -10.0881 0.893449 -9.36142
LeftLeg  26.2905 -25.2344 -12.6265
LeftFoot  -3.46098 -0.259117 4.06377
LeftToes  -7.45818e-011 -3.37383e-011 1.08613e-011
246
root  -6.53953 38.767 13.6141 179.26 -40.7212 172.554
RightUpLeg  4.64856 0.709615 -19.7778
RightLeg  30.146 -20.6098 -12.6647
RightFoot  -4.50474 -0.893098 14.3663
RightToes  -5.8209e-011 0 -3.6325e-017
Spine  11.8452 2.47739 39.5228
Spine1  16.6027 8.54513 -5.05063
HEad  16.0266 -49.8004 -0.745935
LeftShoulder1  7.94951 -16.5744 -33.55
LeftArm  -3.14174 -36.6573 -72.9449
LeftForeArm  -23.7091 2.38814 -7.15181
LeftHand  -0.246645 0.021 5.37786
RightShoulder  7.92005 17.3675 31.9451
RightArm  18.1748 60.9353 69.8864
RightForeArm  51.8382 -6.65147 14.4658
RightHand  -0.24729 -0.0210522 -5.37781
LeftUpLeg  -9.77685 0.704406 -9.58141
LeftLeg  26.401 -26.7239 -13.3758
LeftFoot  -3.06212 -0.278634 4.10445
LeftToes  -7.45818e-011 -3.37383e-011 1.08613e-011
247
root  -6.5885 38.7744 13.542 179.589 -42.8124 172.256
RightUpLeg  5.05966 0.408598 -19.6125
RightLeg  31.2136 -21.2146 -13.52
RightFoot  -3.85307 -0.941119 13.9138
RightToes  -5.8209e-011 0 -3.6325e-017
Spine  10.7047 3.25256 40.542
Spine1  16.146 9.10106 -5.33616
HEad  15.7141 -48.8968 -0.779642
LeftShoulder1  7.9534 -16.5353 -33.6466
LeftArm  -3.12057 -36.5044 -72.5204
LeftForeArm  -24.4125 0.884506 -7.45645
LeftHand  -0.246645 0.021 5.37786
RightShoulder  7.85505 17.3527 31.6586
RightArm  21.461 61.4638 71.5739
RightForeArm  52.151 -6.28529 14.8505
RightHand  -0.24729 -0.0210522 -5.37781
LeftUpLeg  -9.55228 0.324561 -9.78191
LeftLeg  26.5752 -28.2098 -14.1533
LeftFoot  -2.68142 -0.289472 4.03562
LeftToes  -7.45818e-011 -3.37383e-011 1.08613e-011
248
root  -6.62009 38.7805 13.4594 179.909 -45.0667 171.949
RightUpLeg  5.53256 0.166886 -19.3125
RightLeg  32.3638 -21.8901 -14.4924
RightFoot  -3.11055 -1.00597 13.6245
RightToes  -5.8209e-011 0 -3.6325e-017
Spine  9.49824 4.00326 41.4919
Spine1  15.8404 9.60499 -5.7059
HEad  15.0789 -47.9374 -0.50767
LeftShoulder1  7.96732 -16.5155 -33.7549
LeftArm  -3.31655 -36.6085 -71.989
LeftForeArm  -24.6508 -0.579139 -7.60251
LeftHand  -0.246645 0.021 5.37786
RightShoulder  7.80263 17.3437 31.4215
RightArm  25.3158 62.1589 73.3401
RightForeArm  51.9199 -5.81976 15.2765
RightHand  -0.24729 -0.0210522 -5.37781
LeftUpLeg  -9.33524 -0.227479 -9.9391
LeftLeg  26.8636 -29.6419 -14.9703
LeftFoot  -2.36913 -0.302157 4.03172
LeftToes  -7.45818e-011 -3.37383e-011 1.08613e-011
249
root  -6.64802 38.7893 13.3701 -179.739 -47.3882 171.558
RightUpLeg  6.03018 -0.0417521 -18.9977
RightLeg  33.583 -22.4429 -15.4673
RightFoot  -2.29599 -1.07945 13.3905
RightToes  -5.8209e-011 0 -3.6325e-017
Spine  8.4846 4.73511 42.2472
Spine1  15.3319 10.1028 -6.05515
HEad  14.424 -46.9747 -0.228616
LeftShoulder1  8.00223 -16.5278 -33.9033
LeftArm  -3.60016 -36.7631 -71.3718
LeftForeArm  -24.6032 -2.03255 -7.69442
LeftHand  -0.246645 0.021 5.37786
RightShoulder  7.71292 17.2989 31.0677
RightArm  30.087 62.8565 75.355
RightForeArm  50.7581 -5.17652 15.7892
RightHand  -0.24729 -0.0210522 -5.37781
LeftUpLeg  -9.0637 -0.710734 -10.1017
LeftLeg  27.1937 -31.1472 -15.8467
LeftFoot  -2.05951 -0.320296 4.09722
LeftToes  -7.45818e-011 -3.37383e-011 1.08613e-011
250
root  -6.67906 38.8043 13.279 -179.285 -49.7218 171.063
RightUpLeg  6.45684 -0.250645 -18.7336
RightLeg  34.8567 -22.7505 -16.3576
RightFoot  -1.38378 -1.1492 13.0313
RightToes  -5.8209e-011 0 -3.6325e-017
Spine  7.6785 5.43857 42.7803
Spine1  14.5244 10.5819 -6.36121
HEad  13.991 -45.9982 -0.101812
LeftShoulder1  8.02217 -16.5257 -34.0062
LeftArm  -3.87397 -36.803 -70.7302
LeftForeArm  -24.4873 -3.62118 -7.82465
LeftHand  -0.246645 0.021 5.37786
RightShoulder  7.5899 17.2301 30.5925
RightArm  35.5939 63.4369 77.6735
RightForeArm  48.9868 -4.37179 16.3131
RightHand  -0.24729 -0.0210522 -5.37781
LeftUpLeg  -8.73985 -0.969492 -10.263
LeftLeg  27.4914 -32.9012 -16.8128
LeftFoot  -1.67525 -0.324752 3.96034
LeftToes  -7.45818e-011 -3.37383e-011 1.08613e-011
251
root  -6.70715 38.8253 13.1843 -178.822 -52.107 170.56
RightUpLeg  6.85522 -0.433917 -18.4129
RightLeg  36.1497 -22.8511 -17.1566
RightFoot  -0.285926 -1.204 12.3795
RightToes  -5.8209e-011 0 -3.6325e-017
Spine  6.77332 6.09599 43.2785
Spine1  13.8799 10.986 -6.70507
HEad  13.6428 -44.9824 0.05061
LeftShoulder1  7.98579 -16.4736 -33.9297
LeftArm  -4.15641 -36.9324 -70.2299
LeftForeArm  -24.2686 -5.312 -7.93604
LeftHand  -0.246645 0.021 5.37786
RightShoulder  7.48428 17.1781 30.1681
RightArm  40.9308 64.0471 80.115
RightForeArm  47.5387 -3.60362 16.7031
RightHand  -0.24729 -0.0210522 -5.37781
LeftUpLeg  -8.35675 -1.07391 -10.3396
LeftLeg  27.8038 -34.9195 -17.8979
LeftFoot  -1.22557 -0.300552 3.47987
LeftToes  -7.45818e-011 -3.37383e-011 1.08613e-011
252
root  -6.72835 38.8489 13.0849 -178.41 -54.5309 170.086
RightUpLeg  7.25763 -0.485585 -17.9479
RightLeg  37.4489 -22.8142 -17.8911
RightFoot  1.05402 -1.23996 11.4528
RightToes  -5.8209e-011 0 -3.6325e-017
Spine  5.69899 6.73679 43.8314
Spine1  13.5733 11.3453 -7.09919
HEad  13.1869 -43.957 0.241718
LeftShoulder1  7.9178 -16.4102 -33.7182
LeftArm  -4.44803 -37.3309 -69.9225
LeftForeArm  -23.8641 -6.92269 -7.97938
LeftHand  -0.246645 0.021 5.37786
RightShoulder  7.41411 17.1339 29.9015
RightArm  45.4894 64.8063 82.5549
RightForeArm  46.903 -3.0278 16.925
RightHand  -0.24729 -0.0210522 -5.37781
LeftUpLeg  -7.92849 -1.18218 -10.3328
LeftLeg  28.1806 -36.999 -19.0438
LeftFoot  -0.748521 -0.265005 2.90698
LeftToes  -7.45818e-011 -3.37383e-011 1.08613e-011
253
root  -6.74622 38.8725 12.9857 -177.889 -56.8697 169.525
RightUpLeg  7.5522 -0.30025 -17.4045
RightLeg  38.747 -22.6616 -18.5627
RightFoot  2.53026 -1.2717 10.5673
RightToes  -5.8209e-011 0 -3.6325e-017
Spine  4.92157 7.36003 44.3149
Spine1  12.9013 11.7764 -7.5767
HEad  12.7698 -43.0247 0.184884
LeftShoulder1  7.87275 -16.3697 -33.5741
LeftArm  -4.6668 -37.7193 -69.5582
LeftForeArm  -23.474 -8.4405 -8.00969
LeftHand  -0.246645 0.021 5.37786
RightShoulder  7.36421 17.0702 29.7687
RightArm  50.1605 65.5248 85.1304
RightForeArm  46.3375 -2.42705 17.1153
RightHand  -0.24729 -0.0210522 -5.37781
LeftUpLeg  -7.54802 -1.37816 -10.3559
LeftLeg  28.5611 -38.9055 -20.111
LeftFoot  -0.241574 -0.246462 2.55059
LeftToes  -7.45818e-011 -3.37383e-011 1.08613e-011
254
root  -6.76221 38.8954 12.889 -177.126 -59.0532 168.791
RightUpLeg  7.69676 0.095883 -16.8572
RightLeg  39.9907 -22.4302 -19.1579
RightFoot  3.93917 -1.32392 10.0441
RightToes  -5.8209e-011 0 -3.6325e-017
Spine  4.7687 7.88092 44.6952
Spine1  11.3362 12.3013 -8.30239
HEad  12.6118 -42.283 -0.133318
LeftShoulder1  7.84592 -16.313 -33.5528
LeftArm  -4.57252 -37.794 -68.876
LeftForeArm  -23.5562 -10.109 -8.0299
LeftHand  -0.246645 0.021 5.37786
RightShoulder  7.33483 17.0159 29.7202
RightArm  56.5401 65.7807 88.3755
RightForeArm  44.8182 -1.48226 17.377
RightHand  -0.24729 -0.0210522 -5.37781
LeftUpLeg  -7.27469 -1.66733 -10.4578
LeftLeg  28.8847 -40.5729 -21.0299
LeftFoot  0.282005 -0.244434 2.38427
LeftToes  -7.45818e-011 -3.37383e-011 1.08613e-011
